<?xml version="1.0" standalone="no"?>
<!DOCTYPE svg PUBLIC "-//W3C//DTD SVG 20010904//EN"
 "http://www.w3.org/TR/2001/REC-SVG-20010904/DTD/svg10.dtd">
<svg version="1.0" xmlns="http://www.w3.org/2000/svg"
 width="1563.000000pt" height="1563.000000pt" viewBox="0 0 1563.000000 1563.000000"
 preserveAspectRatio="xMidYMid meet">

<g transform="translate(0.000000,1563.000000) scale(0.100000,-0.100000)"
fill="#000000" stroke="none">
<path d="M4770 10081 c-138 -42 -227 -188 -200 -329 18 -95 65 -158 152 -201
170 -85 370 12 407 197 27 138 -48 273 -177 322 -53 20 -135 25 -182 11z"/>
<path d="M3875 9398 c-238 -26 -464 -120 -610 -252 l-50 -45 35 10 c211 60
562 66 795 13 160 -37 493 -162 539 -203 43 -39 159 -192 220 -291 153 -247
243 -493 282 -767 20 -144 15 -440 -11 -578 -34 -190 -105 -417 -169 -542 -14
-29 -24 -53 -22 -53 8 0 96 151 162 275 213 405 316 842 285 1204 -19 208 -67
397 -144 565 l-34 72 32 -4 c17 -2 83 6 148 17 64 12 158 21 209 21 247 0 501
83 673 221 77 61 157 144 130 135 -263 -93 -531 -118 -813 -75 -75 11 -321 67
-547 124 -617 155 -833 185 -1110 153z"/>
<path d="M7945 9364 c-85 -18 -198 -70 -246 -112 -19 -17 -48 -55 -64 -84 -25
-45 -30 -67 -33 -144 -5 -116 12 -175 74 -243 68 -76 148 -111 381 -167 168
-40 202 -51 225 -75 34 -33 35 -50 6 -84 -42 -47 -190 -57 -280 -18 -40 17
-68 61 -68 107 l0 26 -181 0 -182 0 6 -70 c15 -178 115 -280 323 -332 72 -18
119 -22 249 -22 141 -1 169 2 235 23 98 30 143 54 196 103 38 35 77 100 98
163 6 16 12 11 36 -31 62 -110 198 -204 346 -241 105 -26 344 -23 447 5 274
75 417 279 417 592 0 315 -143 520 -415 595 -92 26 -300 31 -410 11 -190 -36
-328 -133 -402 -282 l-38 -78 -7 57 c-17 137 -102 225 -273 283 -70 24 -99 28
-225 30 -103 3 -165 -1 -215 -12z m312 -270 c15 -12 34 -39 41 -62 l14 -42
175 0 175 0 -6 -27 c-4 -16 -9 -69 -13 -120 l-6 -92 -40 35 c-63 53 -133 82
-300 120 -276 65 -307 78 -307 133 0 55 55 82 162 78 59 -2 83 -7 105 -23z
m1140 -19 c52 -22 87 -58 115 -119 21 -46 23 -66 23 -197 0 -142 -1 -147 -30
-204 -43 -85 -100 -119 -207 -124 -100 -4 -154 15 -203 71 -56 66 -67 117 -63
281 3 114 7 149 22 177 36 68 91 113 161 131 42 11 137 2 182 -16z"/>
<path d="M6255 8174 c-50 -18 -83 -49 -106 -99 -63 -137 63 -292 208 -255 92
23 143 88 143 181 0 76 -36 133 -103 165 -59 27 -85 29 -142 8z"/>
<path d="M5411 8104 c0 -11 3 -14 6 -6 3 7 2 16 -1 19 -3 4 -6 -2 -5 -13z"/>
<path d="M5426 8045 c11 -66 63 -216 99 -280 74 -134 265 -300 415 -361 65
-26 89 -49 152 -140 72 -106 102 -220 117 -454 13 -201 43 -318 117 -468 46
-94 70 -127 133 -191 127 -131 291 -224 471 -270 120 -30 134 -27 65 15 -129
77 -205 163 -294 334 -98 188 -151 399 -151 604 0 159 20 367 37 388 23 26
110 64 203 89 71 19 111 23 240 23 173 0 268 -18 386 -75 72 -34 161 -110 170
-145 12 -47 14 -17 3 37 -17 82 -74 182 -134 238 -181 164 -561 250 -918 207
-162 -20 -317 -23 -406 -6 -129 23 -272 86 -381 165 -78 58 -230 212 -272 277
-17 27 -33 46 -35 44 -2 -2 5 -24 16 -50 28 -63 16 -58 -14 7 l-25 52 6 -40z"/>
<path d="M9302 7813 l3 -138 143 -3 142 -3 0 141 0 140 -145 0 -146 0 3 -137z"/>
<path d="M9240 6930 l0 -600 190 0 190 0 0 220 0 220 73 0 73 0 106 -220 107
-220 410 0 411 0 0 230 0 230 210 0 c193 0 210 -1 210 -17 1 -10 0 -114 0
-230 l-1 -213 196 0 195 0 0 600 0 600 -192 -2 -193 -3 -2 -215 -1 -215 -211
-3 -211 -2 0 220 0 220 -195 0 -195 0 -2 -596 -3 -596 -127 240 c-71 132 -128
244 -128 248 0 5 20 20 45 33 65 34 128 107 154 177 19 49 22 73 19 149 -7
152 -68 243 -208 309 l-65 31 -427 3 -428 3 0 -601z m706 296 c29 -29 34 -41
34 -79 0 -55 -27 -92 -78 -107 -20 -5 -92 -10 -159 -10 l-123 0 0 115 0 115
146 0 146 0 34 -34z"/>
<path d="M3992 5522 c2 -5 30 -82 63 -170 l60 -162 32 0 c29 0 33 4 51 53 11
28 38 101 61 161 23 60 41 113 41 117 0 5 -11 9 -24 9 -26 0 -26 2 -91 -185
-16 -44 -31 -83 -34 -87 -3 -4 -28 56 -55 132 -48 136 -50 140 -79 140 -16 0
-27 -4 -25 -8z"/>
<path d="M4520 5509 c-44 -27 -62 -52 -76 -103 -29 -110 40 -206 153 -213 47
-3 66 1 98 19 47 27 85 94 85 148 0 45 -37 118 -73 144 -42 31 -142 34 -187 5z
m147 -39 c41 -25 55 -52 56 -110 2 -158 -213 -171 -231 -14 -12 107 87 178
175 124z"/>
<path d="M4920 5510 c0 -17 7 -20 45 -20 l45 0 0 -150 0 -150 25 0 24 0 3 148
3 147 43 3 c34 3 42 7 42 23 0 18 -8 19 -115 19 -108 0 -115 -1 -115 -20z"/>
<path d="M5310 5360 l0 -170 25 0 c24 0 25 2 25 70 0 68 1 70 25 70 19 0 31
-13 61 -66 38 -68 49 -78 83 -72 18 3 17 8 -20 68 -43 71 -46 80 -26 80 19 0
54 40 62 70 9 37 -10 77 -47 100 -26 15 -51 20 -110 20 l-78 0 0 -170z m158
114 c26 -18 29 -60 5 -86 -11 -13 -30 -18 -65 -18 l-48 0 0 53 c0 30 3 57 7
60 12 13 79 7 101 -9z"/>
<path d="M5720 5360 l0 -170 90 0 c83 0 90 1 90 20 0 18 -7 20 -65 20 l-65 0
0 55 0 55 60 0 c53 0 60 2 60 20 0 16 -8 19 -57 22 l-58 3 -3 53 -3 52 65 0
c59 0 66 2 66 20 0 19 -7 20 -90 20 l-90 0 0 -170z"/>
<path d="M6300 5360 l0 -170 25 0 c24 0 25 2 25 69 l0 69 65 4 c50 3 70 9 89
27 49 47 42 115 -16 151 -26 15 -51 20 -110 20 l-78 0 0 -170z m158 114 c14
-10 22 -25 22 -44 0 -39 -35 -62 -87 -58 -37 3 -38 4 -41 47 -2 24 -1 50 2 57
7 19 76 18 104 -2z"/>
<path d="M6777 5488 c-8 -24 -35 -100 -61 -170 l-45 -128 27 0 c23 0 30 7 41
35 l12 35 74 0 73 0 12 -35 c10 -29 16 -35 39 -35 l28 0 -61 170 -61 170 -32
0 c-28 0 -33 -5 -46 -42z m74 -95 c12 -38 24 -74 27 -80 3 -10 -12 -13 -53
-13 -56 0 -57 0 -51 25 9 35 47 135 51 135 2 0 13 -30 26 -67z"/>
<path d="M7130 5360 l0 -170 25 0 c23 0 24 3 27 68 3 60 5 67 25 70 17 3 28
-9 59 -63 38 -69 49 -79 83 -73 18 3 17 8 -20 68 -43 71 -46 80 -26 80 17 0
53 39 61 65 10 35 -9 79 -44 103 -27 18 -47 22 -111 22 l-79 0 0 -170z m165
110 c20 -17 19 -59 -2 -82 -11 -13 -30 -18 -65 -18 l-48 0 0 53 c0 30 3 57 8
61 10 11 89 1 107 -14z"/>
<path d="M7520 5510 c0 -17 7 -20 45 -20 l45 0 0 -150 0 -150 25 0 24 0 3 148
3 147 48 3 c39 3 47 6 47 23 0 18 -8 19 -120 19 -113 0 -120 -1 -120 -20z"/>
<path d="M7910 5360 l0 -170 95 0 c88 0 95 1 95 20 0 18 -7 20 -65 20 l-65 0
0 55 0 55 55 0 c48 0 55 2 55 20 0 18 -7 20 -55 20 l-55 0 0 55 0 55 65 0 c58
0 65 2 65 20 0 19 -7 20 -95 20 l-95 0 0 -170z"/>
<path d="M8270 5360 l0 -170 25 0 24 0 3 127 3 126 84 -126 c75 -113 87 -127
112 -127 l29 0 0 170 0 170 -30 0 -30 0 0 -127 -1 -128 -82 127 c-72 112 -85
128 -109 128 l-28 0 0 -170z"/>
<path d="M8807 5488 c-8 -24 -35 -100 -61 -170 l-45 -128 28 0 c23 0 30 6 37
33 l10 32 76 3 76 3 12 -36 c9 -27 17 -35 36 -35 13 0 24 3 24 8 0 4 -26 80
-57 170 l-58 162 -31 0 c-29 0 -34 -5 -47 -42z m74 -95 c12 -38 24 -74 27 -80
3 -10 -12 -13 -53 -13 -56 0 -57 0 -51 25 9 35 47 135 51 135 2 0 13 -30 26
-67z"/>
<path d="M9160 5360 l0 -170 25 0 25 0 0 170 0 170 -25 0 -25 0 0 -170z"/>
<path d="M9390 5360 l0 -170 25 0 c24 0 25 2 25 70 0 66 1 70 23 70 17 0 31
-16 62 -70 37 -64 43 -70 72 -70 l33 0 -40 65 c-43 71 -48 85 -26 85 24 0 56
50 56 87 0 74 -45 103 -160 103 l-70 0 0 -170z m167 104 c35 -48 2 -94 -69
-94 l-48 0 0 61 0 62 52 -5 c34 -4 56 -12 65 -24z"/>
<path d="M9800 5360 l0 -170 90 0 c83 0 90 1 90 20 0 18 -7 20 -65 20 l-65 0
0 55 0 55 60 0 c53 0 60 2 60 20 0 18 -7 20 -60 20 l-60 0 0 55 0 55 65 0 c58
0 65 2 65 20 0 19 -7 20 -90 20 l-90 0 0 -170z"/>
<path d="M10380 5360 l0 -170 25 0 c24 0 25 2 25 70 l0 70 53 0 c98 0 149 62
116 141 -17 42 -61 59 -149 59 l-70 0 0 -170z m167 104 c33 -45 5 -85 -65 -92
l-52 -5 0 63 0 63 52 -5 c34 -4 56 -12 65 -24z"/>
<path d="M10866 5522 c-7 -11 -116 -318 -116 -327 0 -3 12 -5 27 -3 21 2 29
10 37 36 l9 33 76 -3 75 -3 10 -32 c7 -27 14 -33 37 -33 16 0 29 1 29 3 0 1
-27 76 -59 167 -57 161 -60 165 -89 168 -17 2 -33 -1 -36 -6z m62 -138 c12
-34 22 -66 22 -73 0 -11 -91 -17 -102 -6 -2 3 7 39 21 80 14 41 28 71 32 67 3
-4 15 -34 27 -68z"/>
<path d="M11210 5360 l0 -170 25 0 25 0 0 170 0 170 -25 0 -25 0 0 -170z"/>
<path d="M11430 5360 l0 -170 95 0 c88 0 95 1 95 20 0 18 -7 20 -65 20 l-65 0
0 55 0 55 55 0 c48 0 55 2 55 20 0 18 -7 20 -55 20 l-55 0 0 55 0 55 65 0 c58
0 65 2 65 20 0 19 -7 20 -95 20 l-95 0 0 -170z"/>
</g>
</svg>
